<svg width="40" height="40" fill="none" xmlns="http://www.w3.org/2000/svg"><path d="M17.678 35.876L2.601 24.36c-.39-.219-.597-.702-.503-1.174l2.721-9.693c.135-.682.316-.882 1.385-1.514a1.53 1.53 0 00-.025 2.618l.048.031c.432.319 7.06 5.195 11.36 7.738 1.507.989 2.081 1.893 2.336 3.678v10.418a4.586 4.586 0 01-2.245-.586z" fill="#fff"/><path d="M17.678 35.876L2.601 24.36c-.39-.219-.597-.702-.504-1.174l2.722-9.693c.135-.682.316-.882 1.385-1.514a1.53 1.53 0 00-.025 2.618c.017.01.032.02.047.031.433.319 7.062 5.195 11.36 7.738 1.508.989 2.082 1.893 2.337 3.678v10.418a4.587 4.587 0 01-2.245-.586z" fill="url(#paint0_linear_1559_2972)"/><path d="M17.678 35.876L2.601 24.36c-.39-.219-.597-.702-.504-1.174l2.722-9.693c.135-.682.316-.882 1.385-1.514a1.53 1.53 0 00-.025 2.618c.017.01.032.02.047.031.433.319 7.062 5.195 11.36 7.738 1.508.989 2.082 1.893 2.337 3.678v10.418a4.587 4.587 0 01-2.245-.586z" fill="#000" fill-opacity=".4"/><path fill-rule="evenodd" clip-rule="evenodd" d="M17.996 4.87L6.635 12.61a.75.75 0 01-.041.027.765.765 0 00-.013 1.309l.094.06 11.32 7.713a3.824 3.824 0 003.856 0l11.321-7.713c.035-.023.07-.046.094-.06l.009-.006a.765.765 0 00-.022-1.303.773.773 0 01-.041-.027L21.85 4.87a3.825 3.825 0 00-3.855 0zM34.6 14.8c-.142.163-.31.31-.506.433l-.06.039-11.343 7.727-.011.008c-.703.46-1.128.863-1.412 1.31-.279.439-.46.98-.58 1.783v9.521a3.821 3.821 0 001.061-.387l15.032-11.481a.77.77 0 01.09-.06c.07-.038.156-.165.132-.336L34.6 14.8zM19.158 35.62V26.1c-.119-.803-.3-1.344-.579-1.782-.285-.448-.709-.85-1.412-1.311l-.011-.008-11.343-7.727a1.94 1.94 0 00-.045-.03l-.015-.009a2.305 2.305 0 01-.506-.433l-2.403 8.557c-.025.171.062.298.131.336a.77.77 0 01.09.06l15.033 11.481a3.8 3.8 0 001.06.387zM5.794 11.333l11.362-7.741a5.354 5.354 0 015.535 0l11.362 7.74c.51.303.916.561 1.197.87.324.354.443.724.522 1.112l2.714 9.665.014.058c.147.744-.156 1.55-.827 1.959l-15.04 11.488a.778.778 0 01-.09.059 5.35 5.35 0 01-5.239 0 .768.768 0 01-.09-.06L2.174 24.996c-.67-.408-.974-1.215-.827-1.959a.763.763 0 01.014-.058l2.714-9.665c.079-.388.197-.758.521-1.113.282-.308.688-.566 1.198-.869z" fill="url(#paint1_linear_1559_2972)"/><path fill-rule="evenodd" clip-rule="evenodd" d="M6.175 14.593a1.53 1.53 0 01.03-2.615l11.381-7.754a4.59 4.59 0 014.674 0l11.382 7.754a1.53 1.53 0 01.042 2.608l-.012.007-.07.045-11.342 7.728a4.59 4.59 0 01-4.674 0L6.244 14.638l-.07-.045zm16.44-5.369a.638.638 0 00-1.16-.527l-3.73 8.213a.637.637 0 101.16.527l3.73-8.213zm-7.021 2.367a.637.637 0 10-.697-1.067l-3.481 2.271a.638.638 0 000 1.068l3.481 2.272a.637.637 0 00.697-1.068l-2.663-1.738 2.663-1.738zm9.85-1.067a.637.637 0 00-.697 1.067l2.663 1.738-2.663 1.738a.637.637 0 00.696 1.068l3.482-2.272a.637.637 0 000-1.068l-3.482-2.271z" fill="url(#paint2_linear_1559_2972)"/><defs><linearGradient id="paint0_linear_1559_2972" x1="13.511" y1="11.979" x2="4.566" y2="34.934" gradientUnits="userSpaceOnUse"><stop stop-color="#2DDC25"/><stop offset="1" stop-color="#00B45B"/></linearGradient><linearGradient id="paint1_linear_1559_2972" x1="25.163" y1="2.819" x2="16.036" y2="37.582" gradientUnits="userSpaceOnUse"><stop stop-color="#95D500"/><stop offset="1" stop-color="#02E63F"/></linearGradient><linearGradient id="paint2_linear_1559_2972" x1="24.948" y1="3.584" x2="16.253" y2="36.816" gradientUnits="userSpaceOnUse"><stop stop-color="#95D500"/><stop offset="1" stop-color="#02E63F"/></linearGradient></defs></svg>